<svg version="1.1" id="Icons" xmlns="http://www.w3.org/2000/svg" xmlns:xlink="http://www.w3.org/1999/xlink" x="0px" y="0px" viewBox="0 0 32 32" style="enable-background:new 0 0 32 32;" xml:space="preserve">
<style type="text/css">
	.st0{fill:none;stroke:#000000;stroke-width:2;stroke-linecap:round;stroke-linejoin:round;stroke-miterlimit:10;}
</style>
<path class="st0" d="M20,9h-8V7c0-2.2,1.8-4,4-4h0c2.2,0,4,1.8,4,4V9z" id="id_101" style="stroke: rgb(81, 90, 71);"></path>
<path class="st0" d="M8,14v13c0,1.1,0.9,2,2,2h12c1.1,0,2-0.9,2-2V14h2v-3c0-1.1-0.9-2-2-2H8c-1.1,0-2,0.9-2,2v3h18" id="id_102" style="stroke: rgb(81, 90, 71);"></path>
<line class="st0" x1="13" y1="19" x2="13" y2="24" id="id_103" style="stroke: rgb(81, 90, 71);"></line>
<line class="st0" x1="19" y1="19" x2="19" y2="24" id="id_104" style="stroke: rgb(81, 90, 71);"></line>
</svg>