<svg version="1.1" id="Layer_1" xmlns="http://www.w3.org/2000/svg" xmlns:xlink="http://www.w3.org/1999/xlink" x="0px" y="0px" viewBox="0 0 29 28" style="enable-background:new 0 0 29 28;" xml:space="preserve">
<g id="thinking_1_">
	<path d="M24.873,8.088C24.951,7.736,25,7.375,25,7c0-2.762-2.239-5-5-5c-0.768,0-1.486,0.185-2.137,0.496
		C16.774,0.984,15.004,0,13,0c-2.625,0-4.85,1.686-5.664,4.033C7.223,4.025,7.115,4,7,4C4.239,4,2,6.238,2,9
		c0,0.322,0.037,0.637,0.096,0.943C0.831,10.85,0,12.324,0,13.998C0,16.762,2.238,19,5,19c1.132,0,2.164-0.391,3.002-1.025
		C8.914,19.197,10.357,20,12,20c0.809,0,1.562-0.211,2.238-0.553C14.862,21.498,16.746,23,19,23c2.762,0,5-2.238,5-5l0,0l0,0
		c2.762,0,5-2.238,5-5.002C29,10.537,27.217,8.502,24.873,8.088z" id="id_101" style="fill: rgb(81, 90, 71);"></path>
	<circle cx="9.5" cy="23.5" r="2.5" id="id_102" style="fill: rgb(81, 90, 71);"></circle>
	<circle cx="4.5" cy="26.5" r="1.5" id="id_103" style="fill: rgb(81, 90, 71);"></circle>
</g>
</svg>